# Created by DisUnity v0.3.1
v -16.651875 -15.557656 3.0517577E-7
v 16.370033 -15.580244 3.4337475
v 16.370033 -15.580244 3.0517577E-7
v -16.651875 -15.557656 3.4337475
v 16.516966 15.583772 6.1035155E-7
v 16.516966 15.583772 3.4337478
v -16.71251 15.58157 3.4337478
v -16.71251 15.58157 6.1035155E-7
v 16.370033 -15.580244 3.0517577E-7
v -16.71251 15.58157 6.1035155E-7
v -16.651875 -15.557656 3.0517577E-7
v 16.516966 15.583772 6.1035155E-7
vn 0.5769163 0.5776456 0.5774888
vn -0.7051954 0.7090129 0.0
vn -0.57568383 0.57880026 0.5775625
vn 0.70666003 0.7075533 0.0
vn -0.57881635 -0.57613206 0.57709926
vn -0.70874834 -0.7054614 0.0
vn 0.70781827 -0.70639455 0.0
vn 0.5779807 -0.5768181 0.5772514
vn -0.57568383 0.57880026 0.5775625
vn 0.5779807 -0.5768181 0.5772514
vn 0.5769163 0.5776456 0.5774888
vn -0.57881635 -0.57613206 0.57709926
vt 1.7648282 -0.17821658
vt 0.60712844 -0.26823208
vt 0.60712844 -0.26823208
vt 1.7648282 -0.17821658
vt 0.41875362 1.2527142
vt 0.41875362 1.2527142
vt 1.5626484 1.3906136
vt 1.5626484 1.3906136
vt 0.60712844 -0.26823208
vt 1.5626484 1.3906136
vt 1.7648282 -0.17821658
vt 0.41875362 1.2527142

o @CharacterCreateBlock_01
s 1
usemtl @CharacterCreateBlock_01
f 1/1/1 2/2/2 3/3/3
f 1/1/1 4/4/4 2/2/2
f 5/5/5 3/3/3 2/2/2
f 5/5/5 2/2/2 6/6/6
f 5/5/5 6/6/6 7/7/7
f 5/5/5 7/7/7 8/8/8
f 8/8/8 4/4/4 1/1/1
f 8/8/8 7/7/7 4/4/4
f 9/9/9 10/10/10 11/11/11
f 9/9/9 12/12/12 10/10/10

