# Created by DisUnity v0.3.1
v -0.3489994 -1.588474 0.34874508
v -0.5622508 -1.393219 0.5618412
v -0.49345443 -1.393219 0.20418477
v -0.20454438 -1.393219 0.4933053
v -0.49345443 -1.393219 0.20418477
v -0.3489994 -1.1979638 0.34874514
v -0.20454438 -1.393219 0.4933053
v 0.34874535 -1.588474 0.34899923
v 0.5618414 -1.393219 0.56225073
v 0.20418501 -1.393219 0.49345434
v 0.49330562 -1.393219 0.20454425
v 0.20418501 -1.393219 0.49345434
v 0.3487453 -1.1979638 0.34899935
v 0.49330562 -1.393219 0.20454425
v 0.3489996 -1.5884739 -0.34874552
v 0.562251 -1.393219 -0.56184155
v 0.49345458 -1.3932188 -0.20418517
v 0.2045446 -1.3932188 -0.49330577
v 0.49345458 -1.3932188 -0.20418517
v 0.34899956 -1.1979638 -0.34874547
v 0.2045446 -1.3932188 -0.49330577
v -0.3487451 -1.5884739 -0.34899965
v -0.5618411 -1.393219 -0.56225103
v -0.20418476 -1.3932188 -0.49345466
v -0.49330541 -1.3932188 -0.20454465
v -0.20418476 -1.3932188 -0.49345466
v -0.34874514 -1.1979638 -0.3489996
v -0.49330541 -1.3932188 -0.20454465
v -0.4930375 -1.1831418 -1.7980402E-4
v -0.69212097 -0.9027055 -2.5230047E-4
v -0.42418993 -0.98802227 -0.1758865
v -0.42431808 -0.98802227 0.17557712
v -0.69212097 -0.9027055 -2.5230047E-4
v -0.35547042 -0.7929028 -1.2961455E-4
v -0.35547042 -0.7929028 -1.2961455E-4
v -0.69212097 -0.9027055 -2.5230047E-4
v -1.7957772E-4 -1.183142 0.49303743
v -2.5219482E-4 -0.9027055 0.69212097
v -0.1758863 -0.9880224 0.4241899
v 0.1755772 -0.9880224 0.42431805
v -0.1758863 -0.9880224 0.4241899
v -1.294875E-4 -0.7929028 0.35547045
v 0.1755772 -0.9880224 0.42431805
v 0.49303764 -1.1831418 1.7946301E-4
v 0.6921211 -0.9027054 2.5205605E-4
v 0.4241901 -0.98802227 0.17588623
v 0.42431808 -0.98802227 -0.17557737
v 0.6921211 -0.9027054 2.5205605E-4
v 0.35547054 -0.7929028 1.2939604E-4
v 0.35547054 -0.7929028 1.2939604E-4
v 0.6921211 -0.9027054 2.5205605E-4
v 1.7979248E-4 -1.1831417 -0.49303776
v 2.5227212E-4 -0.9027054 -0.6921211
v 0.17588644 -0.9880222 -0.4241901
v -0.175577 -0.98802227 -0.4243182
v 0.17588644 -0.9880222 -0.4241901
v 1.2959677E-4 -0.79290277 -0.35547054
v -0.175577 -0.98802227 -0.4243182
v -0.3690396 -0.78542405 -0.15301889
v -0.54473495 -1.1906207 -1.8669468E-4
v -0.39274338 -0.78542405 -1.3459403E-4
v -0.5118579 -1.1906205 -0.21223725
v -0.15274973 -0.78542393 -0.36915115
v -0.21186386 -1.1906205 -0.5120127
v 0.15301885 -0.78542393 -0.3690397
v 0.21223718 -1.1906205 -0.5118581
v 0.36915112 -0.78542405 -0.15274997
v 0.5120126 -1.1906205 -0.21186423
v -0.5118579 -1.5958172 -0.2122373
v -0.54473495 -1.5958172 -1.8674301E-4
v 0.2122372 -1.5958172 -0.51185817
v 0.5120126 -1.5958172 -0.21186428
v -0.21186383 -1.5958172 -0.5120128
v 0.54473513 -1.1906207 1.8634961E-4
v 0.39274344 -0.78542405 1.3434557E-4
v 0.54473513 -1.5958172 1.863013E-4
v -0.36915106 -0.78542405 0.1527497
v -0.21223699 -1.1906207 0.51185787
v -0.15301874 -0.78542405 0.36903957
v -0.5120125 -1.1906207 0.21186386
v 0.21186405 -1.1906207 0.5120125
v 0.15274984 -0.78542405 0.36915103
v 0.51185805 -1.1906207 0.2122369
v 0.3690397 -0.78542405 0.15301867
v 0.54473513 -1.1906207 1.8634961E-4
v 0.39274344 -0.78542405 1.3434557E-4
v -0.21223696 -1.5958172 0.5118578
v -0.5120124 -1.5958172 0.21186382
v 0.21186408 -1.5958172 0.5120124
v 0.5118581 -1.5958172 0.21223685
v 0.54473513 -1.5958172 1.863013E-4
v -0.54473495 -1.1906207 -1.8669468E-4
v -0.39274338 -0.78542405 -1.3459403E-4
v -0.54473495 -1.5958172 -1.8674301E-4
v -0.5118579 -1.5958172 -0.2122373
v -0.36037093 -1.7365478 -1.3153943E-4
v -0.54473495 -1.5958172 -1.8674301E-4
v -0.21186383 -1.5958172 -0.5120128
v 1.3146541E-4 -1.7365478 -0.36037126
v 0.2122372 -1.5958172 -0.51185817
v 0.5120126 -1.5958172 -0.21186428
v 0.36037117 -1.7365478 1.3105174E-4
v 0.54473513 -1.5958172 1.863013E-4
v -0.5120124 -1.5958172 0.21186382
v -1.312142E-4 -1.7365478 0.36037084
v -0.21223696 -1.5958172 0.5118578
v -0.36037093 -1.7365478 -1.3153943E-4
v 0.21186408 -1.5958172 0.5120124
v 0.36037117 -1.7365478 1.3105174E-4
v 0.5118581 -1.5958172 0.21223685
v 0.54473513 -1.5958172 1.863013E-4
v -0.54473495 -1.5958172 -1.8674301E-4
v -0.36915106 -0.78542405 0.1527497
v -0.24685964 -0.3725008 -9.00082E-5
v -0.39274338 -0.78542405 -1.3459403E-4
v -0.3690396 -0.78542405 -0.15301889
v 8.999365E-5 -0.37250075 -0.24685971
v -0.15274973 -0.78542393 -0.36915115
v 0.15301885 -0.78542393 -0.3690397
v 0.24685968 -0.3725008 8.988112E-5
v 0.36915112 -0.78542405 -0.15274997
v 0.39274344 -0.78542405 1.3434557E-4
v 0.12742583 0.47197336 4.6162564E-5
v -4.637466E-5 0.47197336 0.12742582
v -8.9918634E-5 -0.37250084 0.2468596
v -0.12742585 0.47197336 -4.6562287E-5
v -0.24685964 -0.3725008 -9.00082E-5
v 4.6447145E-5 0.47197336 -0.12742583
v -0.24685964 -0.3725008 -9.00082E-5
v 0.3690397 -0.78542405 0.15301867
v -0.24685964 -0.3725008 -9.00082E-5
v -0.15301874 -0.78542405 0.36903957
v -0.36915106 -0.78542405 0.1527497
v 0.15274984 -0.78542405 0.36915103
v 0.3690397 -0.78542405 0.15301867
v 0.24685968 -0.3725008 8.988112E-5
v -0.36037093 -1.7365478 -1.3153943E-4
v -7.772593E-5 -1.8679277 0.21362577
v -1.312142E-4 -1.7365478 0.36037084
v -0.21362586 -1.8679277 -7.806731E-5
v 0.21362613 -1.8679277 7.757039E-5
v 0.36037117 -1.7365478 1.3105174E-4
v 0.36037117 -1.7365478 1.3105174E-4
v 7.799281E-5 -1.8679277 -0.21362627
v 1.3146541E-4 -1.7365478 -0.36037126
v 0.21362613 -1.8679277 7.757039E-5
v -0.21362586 -1.8679277 -7.806731E-5
v -0.36037093 -1.7365478 -1.3153943E-4
v 0.21362613 -1.8679277 7.757039E-5
v -0.21362586 -1.8679277 -7.806731E-5
v 7.799281E-5 -1.8679277 -0.21362627
v -7.772593E-5 -1.8679277 0.21362577
v -4.637466E-5 0.47197336 0.12742582
v -0.23902158 0.6005631 -8.71969E-5
v -0.12742585 0.47197336 -4.6562287E-5
v -8.703862E-5 0.60056317 0.23902152
v 0.12742583 0.47197336 4.6162564E-5
v 0.23902151 0.60056317 8.6817454E-5
v 4.6447145E-5 0.47197336 -0.12742583
v 0.23902151 0.60056317 8.6817454E-5
v 0.12742583 0.47197336 4.6162564E-5
v 8.707847E-5 0.6005631 -0.23902151
v -0.12742585 0.47197336 -4.6562287E-5
v -0.23902158 0.6005631 -8.71969E-5
v -8.703862E-5 0.60056317 0.23902152
v -0.14253227 0.73402584 -5.1898965E-5
v -0.23902158 0.6005631 -8.71969E-5
v -5.1986324E-5 0.73402584 0.14253227
v 0.23902151 0.60056317 8.6817454E-5
v 0.14253221 0.7340258 5.197278E-5
v 8.707847E-5 0.6005631 -0.23902151
v 0.14253221 0.7340258 5.197278E-5
v 0.23902151 0.60056317 8.6817454E-5
v 5.1899617E-5 0.7340258 -0.14253218
v -0.23902158 0.6005631 -8.71969E-5
v -0.14253227 0.73402584 -5.1898965E-5
v 5.1899617E-5 0.7340258 -0.14253218
v -5.1986324E-5 0.73402584 0.14253227
v 0.14253221 0.7340258 5.197278E-5
v -0.14253227 0.73402584 -5.1898965E-5
vn -0.38453218 -0.8393362 0.38425222
vn -0.7073642 0.0 0.7068493
vn -0.98199815 0.0 -0.18889065
vn 0.18817528 0.0 0.98213553
vn -0.98199815 0.0 -0.18889065
vn -0.38453212 0.8393361 0.38425228
vn 0.18817528 0.0 0.98213553
vn 0.38425228 -0.8393362 0.38453215
vn 0.70684916 0.0 0.7073644
vn -0.1888906 -3.190361E-7 0.98199815
vn 0.98213553 0.0 -0.18817502
vn -0.1888906 -3.190361E-7 0.98199815
vn 0.38425207 0.8393361 0.38453233
vn 0.98213553 0.0 -0.18817502
vn 0.3845321 -0.8393364 -0.38425198
vn 0.7073644 -1.76697E-7 -0.70684916
vn 0.98199815 3.6630902E-7 0.18889064
vn -0.1881751 3.9915378E-7 -0.98213553
vn 0.98199815 3.6630902E-7 0.18889064
vn 0.3845323 0.8393362 -0.38425213
vn -0.1881751 3.9915378E-7 -0.98213553
vn -0.384252 -0.8393363 -0.3845322
vn -0.706849 -2.1721866E-7 -0.70736456
vn 0.1888907 4.558262E-7 -0.98199815
vn -0.98213565 2.4923767E-7 0.1881747
vn 0.1888907 4.558262E-7 -0.98199815
vn -0.38425234 0.83933604 -0.38453233
vn -0.98213565 2.4923767E-7 0.1881747
vn -0.8154191 -0.5788711 -2.975782E-4
vn -0.95041984 0.3109695 -3.4646445E-4
vn -0.49761134 0.18281743 -0.84791553
vn -0.49822944 0.18281734 0.84755254
vn -0.95041984 0.3109695 -3.4646445E-4
vn -0.31008515 0.95070887 -1.1320867E-4
vn -0.31008515 0.95070887 -1.1320867E-4
vn -0.95041984 0.3109695 -3.4646445E-4
vn -2.9706195E-4 -0.5788711 0.8154191
vn -3.464407E-4 0.3109694 0.95041984
vn -0.8479156 0.18281709 0.49761128
vn 0.8475526 0.18281724 0.49822932
vn -0.8479156 0.18281709 0.49761128
vn -1.13115486E-4 0.95070875 0.31008533
vn 0.8475526 0.18281724 0.49822932
vn 0.81541914 -0.57887095 2.9691114E-4
vn 0.95041984 0.31096956 3.4646448E-4
vn 0.4976114 0.18281738 0.84791553
vn 0.49822924 0.18281752 -0.8475526
vn 0.95041984 0.31096956 3.4646448E-4
vn 0.31008506 0.95070887 1.1294637E-4
vn 0.31008506 0.95070887 1.1294637E-4
vn 0.95041984 0.31096956 3.4646448E-4
vn 2.9727927E-4 -0.57887083 -0.8154193
vn 3.4619213E-4 0.31096965 -0.9504197
vn 0.84791553 0.1828177 -0.49761128
vn -0.8475528 0.18281725 -0.49822903
vn 0.84791553 0.1828177 -0.49761128
vn 1.1270243E-4 0.95070887 -0.31008506
vn -0.8475528 0.18281725 -0.49822903
vn -0.81844974 0.37657052 -0.43397537
vn -0.98448044 0.17549397 -3.5011148E-4
vn -0.93952465 0.34248117 -3.3395572E-4
vn -0.87895626 0.17477193 -0.44372365
vn -0.37202686 0.3723805 -0.8502522
vn -0.37652504 0.17383936 -0.9099499
vn 0.37264642 0.37238058 -0.8499808
vn 0.37718815 0.17383939 -0.9096752
vn 0.81876206 0.37657097 -0.43338543
vn 0.8792757 0.17477211 -0.4430903
vn -0.78427494 -0.458117 -0.41837975
vn -0.90420014 -0.42710897 -3.2051752E-4
vn 0.36528364 -0.44651154 -0.8168202
vn 0.78457594 -0.45811823 -0.41781384
vn -0.36468822 -0.4465116 -0.81708616
vn 0.98448044 0.1754941 3.502057E-4
vn 0.9395246 0.34248132 3.3373066E-4
vn 0.9042002 -0.4271089 3.2051755E-4
vn -0.81876224 0.3765708 0.43338537
vn -0.37718832 0.17383906 0.9096752
vn -0.37264648 0.37238035 0.84998095
vn -0.87927574 0.17477176 0.44309032
vn 0.37652513 0.17383915 0.9099499
vn 0.37202683 0.37238038 0.85025233
vn 0.87895626 0.17477182 0.4437236
vn 0.8184498 0.3765705 0.43397525
vn 0.98448044 0.1754941 3.502057E-4
vn 0.9395246 0.34248132 3.3373066E-4
vn -0.36528364 -0.44651175 0.81682014
vn -0.78457576 -0.4581184 0.41781384
vn 0.3646883 -0.4465117 0.81708616
vn 0.784275 -0.45811695 0.41837955
vn 0.9042002 -0.4271089 3.2051755E-4
vn -0.98448044 0.17549397 -3.5011148E-4
vn -0.93952465 0.34248117 -3.3395572E-4
vn -0.90420014 -0.42710897 -3.2051752E-4
vn -0.78427494 -0.458117 -0.41837975
vn -0.456967 -0.88948375 -1.6708492E-4
vn -0.90420014 -0.42710897 -3.2051752E-4
vn -0.36468822 -0.4465116 -0.81708616
vn 1.779854E-4 -0.87268364 -0.48828587
vn 0.36528364 -0.44651154 -0.8168202
vn 0.78457594 -0.45811823 -0.41781384
vn 0.45696703 -0.88948363 1.6698297E-4
vn 0.9042002 -0.4271089 3.2051755E-4
vn -0.78457576 -0.4581184 0.41781384
vn -1.7789556E-4 -0.87268376 0.4882859
vn -0.36528364 -0.44651175 0.81682014
vn -0.456967 -0.88948375 -1.6708492E-4
vn 0.3646883 -0.4465117 0.81708616
vn 0.45696703 -0.88948363 1.6698297E-4
vn 0.784275 -0.45811695 0.41837955
vn 0.9042002 -0.4271089 3.2051755E-4
vn -0.90420014 -0.42710897 -3.2051752E-4
vn -0.81876224 0.3765708 0.43338537
vn -0.9316509 0.36335465 -3.394801E-4
vn -0.93952465 0.34248117 -3.3395572E-4
vn -0.81844974 0.37657052 -0.43397537
vn 3.4038027E-4 0.35677803 -0.9341891
vn -0.37202686 0.3723805 -0.8502522
vn 0.37264642 0.37238058 -0.8499808
vn 0.9316509 0.36335465 3.3959767E-4
vn 0.81876206 0.37657097 -0.43338543
vn 0.9395246 0.34248132 3.3373066E-4
vn 0.9901462 0.14003646 3.596223E-4
vn -3.603593E-4 0.14003643 0.9901462
vn -3.4039895E-4 0.35677806 0.9341891
vn -0.99014634 0.14003615 -3.6128005E-4
vn -0.9316509 0.36335465 -3.394801E-4
vn 3.6059323E-4 0.14003617 -0.99014634
vn -0.9316509 0.36335465 -3.394801E-4
vn 0.8184498 0.3765705 0.43397525
vn -0.9316509 0.36335465 -3.394801E-4
vn -0.37264648 0.37238035 0.84998095
vn -0.81876224 0.3765708 0.43338537
vn 0.37202683 0.37238038 0.85025233
vn 0.8184498 0.3765705 0.43397525
vn 0.9316509 0.36335465 3.3959767E-4
vn -0.6670249 -0.74503535 -2.4312503E-4
vn -2.430053E-4 -0.74503535 0.6670249
vn -2.4297487E-4 -0.74503535 0.6670249
vn -0.6670249 -0.74503535 -2.4315927E-4
vn 0.66702515 -0.74503523 2.4304977E-4
vn 0.66702515 -0.7450352 2.4316032E-4
vn 0.66702515 -0.7450352 2.4316032E-4
vn 2.4312786E-4 -0.74503523 -0.667025
vn 2.4299305E-4 -0.7450353 -0.66702497
vn 0.66702515 -0.74503523 2.4304977E-4
vn -0.6670249 -0.74503535 -2.4315927E-4
vn -0.6670249 -0.74503535 -2.4312503E-4
vn 0.0 -1.0 0.0
vn 0.0 -1.0 0.0
vn 0.0 -1.0 0.0
vn 0.0 -1.0 0.0
vn -2.7442857E-4 -0.6554376 0.75524926
vn -0.7552491 -0.65543777 -2.7516249E-4
vn -0.755249 -0.65543795 -2.7559555E-4
vn -2.7455756E-4 -0.65543765 0.75524926
vn 0.75524956 -0.6554373 2.7417653E-4
vn 0.7552493 -0.6554375 2.7487084E-4
vn 2.753799E-4 -0.6554375 -0.7552493
vn 0.7552493 -0.6554375 2.7487084E-4
vn 0.75524956 -0.6554373 2.7417653E-4
vn 2.7526997E-4 -0.65543765 -0.75524926
vn -0.755249 -0.65543795 -2.7559555E-4
vn -0.7552491 -0.65543777 -2.7516249E-4
vn -2.949207E-4 0.58588773 0.8103922
vn -0.8103922 0.58588773 -2.948954E-4
vn -0.8103922 0.5858877 -2.9572428E-4
vn -2.9540077E-4 0.5858875 0.81039226
vn 0.8103917 0.58588827 2.9434898E-4
vn 0.81039196 0.58588797 2.961145E-4
vn 2.9518604E-4 0.58588815 -0.8103919
vn 0.81039196 0.58588797 2.961145E-4
vn 0.8103917 0.58588827 2.9434898E-4
vn 2.9519628E-4 0.585888 -0.81039196
vn -0.8103922 0.5858877 -2.9572428E-4
vn -0.8103922 0.58588773 -2.948954E-4
vn 2.0813037E-7 1.0 -2.6753995E-7
vn 2.081304E-7 1.0 -2.6753995E-7
vn 2.0813034E-7 1.0 -2.6753995E-7
vn 2.0813042E-7 1.0 -2.6753995E-7
vt 0.7474293 0.7172848
vt 0.8680524 0.71537864
vt 0.8680524 0.82705635
vt 0.8680524 0.60751325
vt 0.8680524 0.82705635
vt 0.9882636 0.7172848
vt 0.8680524 0.60751325
vt 0.7474293 0.7172848
vt 0.8680524 0.71537864
vt 0.8680524 0.82705635
vt 0.8680524 0.60751325
vt 0.8680524 0.82705635
vt 0.9882636 0.7172848
vt 0.8680524 0.60751325
vt 0.7474293 0.7172848
vt 0.8680524 0.71537864
vt 0.8680524 0.60751325
vt 0.8680524 0.82705635
vt 0.8680524 0.60751325
vt 0.9882636 0.7172848
vt 0.8680524 0.82705635
vt 0.7474293 0.7172848
vt 0.8680524 0.71537864
vt 0.8680524 0.60751325
vt 0.8680524 0.82705635
vt 0.8680524 0.60751325
vt 0.9882636 0.7172848
vt 0.8680524 0.82705635
vt 0.78285486 0.88841784
vt 0.9307917 0.9931665
vt 0.8857851 0.85219336
vt 0.8857851 0.8522607
vt 0.9307917 0.9931665
vt 0.98871505 0.8160362
vt 0.98871505 0.8160362
vt 0.9307917 0.9931665
vt 0.7474293 0.7172848
vt 0.8680524 0.71537864
vt 0.8680524 0.82705635
vt 0.8680524 0.60751325
vt 0.8680524 0.82705635
vt 0.9882636 0.7172848
vt 0.8680524 0.60751325
vt 0.78285486 0.5416542
vt 0.93079144 0.4369056
vt 0.8857851 0.5778788
vt 0.8857851 0.57781136
vt 0.93079144 0.4369056
vt 0.98871505 0.6140359
vt 0.98871505 0.6140359
vt 0.93079144 0.4369056
vt 0.7474293 0.7172848
vt 0.8680524 0.71537864
vt 0.8680524 0.60751325
vt 0.8680524 0.82705635
vt 0.8680524 0.60751325
vt 0.9882636 0.7172848
vt 0.8680524 0.82705635
vt 0.7384145 0.014284909
vt 0.87223786 0.22053814
vt 0.8277317 0.014284909
vt 0.77867 0.22053814
vt 0.57509106 0.014284909
vt 0.5931826 0.22053814
vt 0.4274718 0.014284909
vt 0.41024292 0.22053814
vt 0.2655173 0.014284909
vt 0.22518675 0.22053814
vt 0.7960269 0.40671438
vt 0.89080334 0.40671438
vt 0.40197882 0.40671438
vt 0.20455584 0.40671438
vt 0.6010732 0.40671438
vt 0.13104326 0.22053814
vt 0.17684114 0.014284909
vt 0.109538466 0.40671438
vt 0.7384145 0.014284909
vt 0.5931826 0.22053814
vt 0.57509106 0.014284909
vt 0.77867 0.22053814
vt 0.41024292 0.22053814
vt 0.4274718 0.014284909
vt 0.22518675 0.22053814
vt 0.2655173 0.014284909
vt 0.13104326 0.22053814
vt 0.17684114 0.014284909
vt 0.6010732 0.40671438
vt 0.7960269 0.40671438
vt 0.40197882 0.40671438
vt 0.20455584 0.40671438
vt 0.109538466 0.40671438
vt 0.87223786 0.22053814
vt 0.8277317 0.014284909
vt 0.89080334 0.40671438
vt 0.12103252 0.4779932
vt 0.23224571 0.5407671
vt 0.21105239 0.45625696
vt 0.009133862 0.62231034
vt 0.097976565 0.7137764
vt 0.008762261 0.80491877
vt 0.11981573 0.9498278
vt 0.23115695 0.88765234
vt 0.20788634 0.9722315
vt 0.12103252 0.4779932
vt 0.097976565 0.7137764
vt 0.009133862 0.62231034
vt 0.23224571 0.5407671
vt 0.008762261 0.80491877
vt 0.23115695 0.88765234
vt 0.11981573 0.9498278
vt 0.20788634 0.9722315
vt 0.21105239 0.45625696
vt 0.6217498 0.99169266
vt 0.5589317 0.83539635
vt 0.5620308 0.99127567
vt 0.50231177 0.99085873
vt 0.42935786 0.78858817
vt 0.39306065 0.95701253
vt 0.29636034 0.8984424
vt 0.329058 0.69464135
vt 0.21599558 0.8168177
vt 0.1897451 0.76130766
vt 0.49501535 0.5364225
vt 0.55353916 0.58685154
vt 0.42935786 0.78858817
vt 0.62494564 0.61629486
vt 0.5589317 0.83539635
vt 0.55353916 0.58685154
vt 0.5589317 0.83539635
vt 0.16349462 0.7057976
vt 0.5589317 0.83539635
vt 0.39306065 0.95701253
vt 0.50231177 0.99085873
vt 0.29636034 0.8984424
vt 0.21599558 0.8168177
vt 0.329058 0.69464135
vt 0.6122131 0.50699496
vt 0.47938263 0.48760575
vt 0.47825575 0.42739493
vt 0.5587918 0.53479135
vt 0.40179464 0.5377298
vt 0.34737003 0.51195073
vt 0.34737003 0.51195073
vt 0.47938263 0.48760575
vt 0.47825575 0.42739493
vt 0.40179464 0.5377298
vt 0.5587918 0.53479135
vt 0.6122131 0.50699496
vt 0.23308988 0.58729285
vt 0.38169223 0.58727294
vt 0.30738083 0.5129818
vt 0.30740118 0.6615833
vt 0.6450202 0.85410416
vt 0.6905198 0.9625748
vt 0.6450202 0.9269005
vt 0.6905198 0.8541197
vt 0.6450202 0.78125983
vt 0.6905198 0.74558556
vt 0.6450202 0.85405624
vt 0.6905198 0.74558556
vt 0.6450202 0.78125983
vt 0.69051975 0.8540406
vt 0.6450202 0.9269005
vt 0.6905198 0.9625748
vt 0.6905198 0.8541197
vt 0.7457432 0.9257624
vt 0.6905198 0.9625748
vt 0.7457432 0.8541038
vt 0.6905198 0.74558556
vt 0.7457432 0.782398
vt 0.69051975 0.8540406
vt 0.7457432 0.782398
vt 0.6905198 0.74558556
vt 0.7457432 0.8540566
vt 0.6905198 0.9625748
vt 0.7457432 0.9257624
vt 0.62692094 0.5737991
vt 0.76670194 0.573821
vt 0.6968224 0.5039194
vt 0.6968008 0.64370126

o orc_weapon
s 1
usemtl orc_weapon
f 1/1/1 2/2/2 3/3/3
f 4/4/4 2/2/2 1/1/1
f 5/5/5 2/2/2 6/6/6
f 6/6/6 2/2/2 7/7/7
f 8/8/8 9/9/9 10/10/10
f 11/11/11 9/9/9 8/8/8
f 12/12/12 9/9/9 13/13/13
f 13/13/13 9/9/9 14/14/14
f 15/15/15 16/16/16 17/17/17
f 18/18/18 16/16/16 15/15/15
f 19/19/19 16/16/16 20/20/20
f 20/20/20 16/16/16 21/21/21
f 22/22/22 23/23/23 24/24/24
f 25/25/25 23/23/23 22/22/22
f 26/26/26 23/23/23 27/27/27
f 27/27/27 23/23/23 28/28/28
f 29/29/29 30/30/30 31/31/31
f 32/32/32 30/30/30 29/29/29
f 31/31/31 33/33/33 34/34/34
f 35/35/35 36/36/36 32/32/32
f 37/37/37 38/38/38 39/39/39
f 40/40/40 38/38/38 37/37/37
f 41/41/41 38/38/38 42/42/42
f 42/42/42 38/38/38 43/43/43
f 44/44/44 45/45/45 46/46/46
f 47/47/47 45/45/45 44/44/44
f 46/46/46 48/48/48 49/49/49
f 50/50/50 51/51/51 47/47/47
f 52/52/52 53/53/53 54/54/54
f 55/55/55 53/53/53 52/52/52
f 56/56/56 53/53/53 57/57/57
f 57/57/57 53/53/53 58/58/58
f 59/59/59 60/60/60 61/61/61
f 60/60/60 59/59/59 62/62/62
f 63/63/63 62/62/62 59/59/59
f 62/62/62 63/63/63 64/64/64
f 65/65/65 64/64/64 63/63/63
f 64/64/64 65/65/65 66/66/66
f 67/67/67 66/66/66 65/65/65
f 66/66/66 67/67/67 68/68/68
f 69/69/69 60/60/60 62/62/62
f 64/64/64 69/69/69 62/62/62
f 60/60/60 69/69/69 70/70/70
f 68/68/68 71/71/71 66/66/66
f 71/71/71 68/68/68 72/72/72
f 66/66/66 73/73/73 64/64/64
f 73/73/73 66/66/66 71/71/71
f 69/69/69 64/64/64 73/73/73
f 67/67/67 74/74/74 68/68/68
f 74/74/74 67/67/67 75/75/75
f 68/68/68 76/76/76 72/72/72
f 76/76/76 68/68/68 74/74/74
f 77/77/77 78/78/78 79/79/79
f 78/78/78 77/77/77 80/80/80
f 81/81/81 79/79/79 78/78/78
f 79/79/79 81/81/81 82/82/82
f 83/83/83 82/82/82 81/81/81
f 82/82/82 83/83/83 84/84/84
f 85/85/85 84/84/84 83/83/83
f 84/84/84 85/85/85 86/86/86
f 80/80/80 87/87/87 78/78/78
f 87/87/87 80/80/80 88/88/88
f 78/78/78 89/89/89 81/81/81
f 89/89/89 78/78/78 87/87/87
f 81/81/81 90/90/90 83/83/83
f 90/90/90 81/81/81 89/89/89
f 90/90/90 85/85/85 83/83/83
f 85/85/85 90/90/90 91/91/91
f 77/77/77 92/92/92 80/80/80
f 92/92/92 77/77/77 93/93/93
f 80/80/80 94/94/94 88/88/88
f 94/94/94 80/80/80 92/92/92
f 95/95/95 96/96/96 97/97/97
f 98/98/98 96/96/96 95/95/95
f 96/96/96 98/98/98 99/99/99
f 100/100/100 99/99/99 98/98/98
f 101/101/101 99/99/99 100/100/100
f 99/99/99 101/101/101 102/102/102
f 103/103/103 102/102/102 101/101/101
f 104/104/104 105/105/105 106/106/106
f 105/105/105 104/104/104 107/107/107
f 106/106/106 105/105/105 108/108/108
f 109/109/109 108/108/108 105/105/105
f 108/108/108 109/109/109 110/110/110
f 110/110/110 109/109/109 111/111/111
f 112/112/112 107/107/107 104/104/104
f 113/113/113 114/114/114 115/115/115
f 115/115/115 114/114/114 116/116/116
f 117/117/117 116/116/116 114/114/114
f 116/116/116 117/117/117 118/118/118
f 118/118/118 117/117/117 119/119/119
f 120/120/120 119/119/119 117/117/117
f 119/119/119 120/120/120 121/121/121
f 121/121/121 120/120/120 122/122/122
f 117/117/117 123/123/123 120/120/120
f 124/124/124 120/120/120 123/123/123
f 120/120/120 124/124/124 125/125/125
f 126/126/126 125/125/125 124/124/124
f 125/125/125 126/126/126 127/127/127
f 123/123/123 117/117/117 128/128/128
f 129/129/129 128/128/128 117/117/117
f 128/128/128 129/129/129 126/126/126
f 122/122/122 120/120/120 130/130/130
f 131/131/131 132/132/132 125/125/125
f 132/132/132 131/131/131 133/133/133
f 134/134/134 125/125/125 132/132/132
f 135/135/135 125/125/125 134/134/134
f 125/125/125 135/135/135 136/136/136
f 137/137/137 138/138/138 139/139/139
f 138/138/138 137/137/137 140/140/140
f 141/141/141 139/139/139 138/138/138
f 139/139/139 141/141/141 142/142/142
f 143/143/143 144/144/144 145/145/145
f 144/144/144 143/143/143 146/146/146
f 147/147/147 145/145/145 144/144/144
f 145/145/145 147/147/147 148/148/148
f 149/149/149 150/150/150 151/151/151
f 150/150/150 149/149/149 152/152/152
f 153/153/153 154/154/154 155/155/155
f 154/154/154 153/153/153 156/156/156
f 157/157/157 156/156/156 153/153/153
f 156/156/156 157/157/157 158/158/158
f 159/159/159 160/160/160 161/161/161
f 160/160/160 159/159/159 162/162/162
f 163/163/163 162/162/162 159/159/159
f 162/162/162 163/163/163 164/164/164
f 165/165/165 166/166/166 167/167/167
f 166/166/166 165/165/165 168/168/168
f 169/169/169 168/168/168 165/165/165
f 168/168/168 169/169/169 170/170/170
f 171/171/171 172/172/172 173/173/173
f 172/172/172 171/171/171 174/174/174
f 175/175/175 174/174/174 171/171/171
f 174/174/174 175/175/175 176/176/176
f 177/177/177 178/178/178 179/179/179
f 178/178/178 177/177/177 180/180/180

